# xmcd
#
# Track frame offsets:
# 150
# 17329
# 38344
# 58636
# 76226
# 99110
# 113886
# 135031
# 160935
# 177542
# 198395
# 213129
# 232383
# 250857
# 273601
#
# Disc length: 3877 seconds
#
#
# Revision: 0
# Processed by: cddbd v1.5.1PL0 Copyright (c) Steve Scherf et al.
# Submitted via: FreeRIP 2.53 
#
DISCID=bb0f230f
DTITLE=XXIX CALIFÓRNIA DA CANÇÃO NATIVA DO RS
DYEAR=1999
DGENRE=Ethnic
TTITLE0=Poema não escrito
TTITLE1=Cortinas da alma
TTITLE2=Milonga da alma
TTITLE3=Milonga para Constâncio Soledad
TTITLE4=Canção do noivo
TTITLE5=Em cima do laço
TTITLE6=Nas entrelinhas do show
TTITLE7=Canção morena
TTITLE8=Um homem sai a cavalo
TTITLE9=Sumo de mim
TTITLE10=Milonga fronteira
TTITLE11=Capitão do mato
TTITLE12=O avesso do couro
TTITLE13=Milongueando a solidão
TTITLE14=Terra viva
EXTD=Gravações ao vivo
EXTT0=
EXTT1=
EXTT2=
EXTT3=
EXTT4=
EXTT5=
EXTT6=
EXTT7=
EXTT8=
EXTT9=
EXTT10=
EXTT11=
EXTT12=
EXTT13=
EXTT14=
PLAYORDER=
